<mxfile host="app.diagrams.net" modified="2024-08-20T21:23:42.572Z" agent="Mozilla/5.0 (Macintosh; Intel Mac OS X 10_15_7) AppleWebKit/537.36 (KHTML, like Gecko) Chrome/126.0.0.0 Safari/537.36" etag="d_BJZCFu5lsR-aQM8tqZ" version="21.3.8" type="device">
  <diagram name="Page-1" id="Eb0mYj8FSYBcsdsodvZW">
    <mxGraphModel dx="1080" dy="659" grid="1" gridSize="10" guides="1" tooltips="1" connect="1" arrows="1" fold="1" page="1" pageScale="1" pageWidth="850" pageHeight="1400" background="#ffffff" math="0" shadow="0">
      <root>
        <mxCell id="0" />
        <mxCell id="1" parent="0" />
        <mxCell id="V2SxDoiyGFHVcNPZ2lyA-6" style="edgeStyle=orthogonalEdgeStyle;rounded=0;orthogonalLoop=1;jettySize=auto;html=1;strokeColor=#000000;" edge="1" parent="1" source="V2SxDoiyGFHVcNPZ2lyA-1" target="V2SxDoiyGFHVcNPZ2lyA-5">
          <mxGeometry relative="1" as="geometry" />
        </mxCell>
        <mxCell id="V2SxDoiyGFHVcNPZ2lyA-1" value="" style="shape=actor;whiteSpace=wrap;html=1;fillColor=#0066CC;" vertex="1" parent="1">
          <mxGeometry x="20" y="204" width="40" height="50" as="geometry" />
        </mxCell>
        <mxCell id="V2SxDoiyGFHVcNPZ2lyA-8" style="edgeStyle=orthogonalEdgeStyle;rounded=0;orthogonalLoop=1;jettySize=auto;html=1;" edge="1" parent="1" source="V2SxDoiyGFHVcNPZ2lyA-2" target="V2SxDoiyGFHVcNPZ2lyA-3">
          <mxGeometry relative="1" as="geometry" />
        </mxCell>
        <mxCell id="V2SxDoiyGFHVcNPZ2lyA-9" style="edgeStyle=orthogonalEdgeStyle;rounded=0;orthogonalLoop=1;jettySize=auto;html=1;entryX=0;entryY=0.5;entryDx=0;entryDy=0;entryPerimeter=0;" edge="1" parent="1" source="V2SxDoiyGFHVcNPZ2lyA-2" target="V2SxDoiyGFHVcNPZ2lyA-4">
          <mxGeometry relative="1" as="geometry" />
        </mxCell>
        <mxCell id="V2SxDoiyGFHVcNPZ2lyA-22" style="edgeStyle=orthogonalEdgeStyle;rounded=0;orthogonalLoop=1;jettySize=auto;html=1;strokeColor=#000000;" edge="1" parent="1" source="V2SxDoiyGFHVcNPZ2lyA-2" target="V2SxDoiyGFHVcNPZ2lyA-4">
          <mxGeometry relative="1" as="geometry" />
        </mxCell>
        <mxCell id="V2SxDoiyGFHVcNPZ2lyA-23" value="Origin access control" style="edgeLabel;html=1;align=center;verticalAlign=middle;resizable=0;points=[];" vertex="1" connectable="0" parent="V2SxDoiyGFHVcNPZ2lyA-22">
          <mxGeometry x="-0.0936" relative="1" as="geometry">
            <mxPoint as="offset" />
          </mxGeometry>
        </mxCell>
        <mxCell id="V2SxDoiyGFHVcNPZ2lyA-25" value="" style="edgeStyle=orthogonalEdgeStyle;rounded=0;orthogonalLoop=1;jettySize=auto;html=1;" edge="1" parent="1" source="V2SxDoiyGFHVcNPZ2lyA-2" target="V2SxDoiyGFHVcNPZ2lyA-3">
          <mxGeometry relative="1" as="geometry" />
        </mxCell>
        <mxCell id="V2SxDoiyGFHVcNPZ2lyA-26" style="edgeStyle=orthogonalEdgeStyle;rounded=0;orthogonalLoop=1;jettySize=auto;html=1;strokeColor=#000000;" edge="1" parent="1" source="V2SxDoiyGFHVcNPZ2lyA-2" target="V2SxDoiyGFHVcNPZ2lyA-3">
          <mxGeometry relative="1" as="geometry" />
        </mxCell>
        <mxCell id="V2SxDoiyGFHVcNPZ2lyA-27" value="Viewer request&lt;br&gt;CloudFront function" style="edgeLabel;html=1;align=center;verticalAlign=middle;resizable=0;points=[];" vertex="1" connectable="0" parent="V2SxDoiyGFHVcNPZ2lyA-26">
          <mxGeometry x="0.2138" relative="1" as="geometry">
            <mxPoint as="offset" />
          </mxGeometry>
        </mxCell>
        <mxCell id="V2SxDoiyGFHVcNPZ2lyA-2" value="resume.your-custom-domain.com&lt;br&gt;CloudFront" style="sketch=0;points=[[0,0,0],[0.25,0,0],[0.5,0,0],[0.75,0,0],[1,0,0],[0,1,0],[0.25,1,0],[0.5,1,0],[0.75,1,0],[1,1,0],[0,0.25,0],[0,0.5,0],[0,0.75,0],[1,0.25,0],[1,0.5,0],[1,0.75,0]];outlineConnect=0;fontColor=#232F3E;gradientColor=#945DF2;gradientDirection=north;fillColor=#5A30B5;strokeColor=#ffffff;dashed=0;verticalLabelPosition=bottom;verticalAlign=top;align=center;html=1;fontSize=12;fontStyle=0;aspect=fixed;shape=mxgraph.aws4.resourceIcon;resIcon=mxgraph.aws4.cloudfront;" vertex="1" parent="1">
          <mxGeometry x="386" y="190" width="78" height="78" as="geometry" />
        </mxCell>
        <mxCell id="V2SxDoiyGFHVcNPZ2lyA-14" style="edgeStyle=orthogonalEdgeStyle;rounded=0;orthogonalLoop=1;jettySize=auto;html=1;entryX=0;entryY=0.5;entryDx=0;entryDy=0;entryPerimeter=0;" edge="1" parent="1" source="V2SxDoiyGFHVcNPZ2lyA-3" target="V2SxDoiyGFHVcNPZ2lyA-13">
          <mxGeometry relative="1" as="geometry" />
        </mxCell>
        <mxCell id="V2SxDoiyGFHVcNPZ2lyA-29" style="edgeStyle=orthogonalEdgeStyle;rounded=0;orthogonalLoop=1;jettySize=auto;html=1;entryX=0;entryY=0.5;entryDx=0;entryDy=0;entryPerimeter=0;strokeColor=#000000;" edge="1" parent="1" source="V2SxDoiyGFHVcNPZ2lyA-3" target="V2SxDoiyGFHVcNPZ2lyA-13">
          <mxGeometry relative="1" as="geometry" />
        </mxCell>
        <mxCell id="V2SxDoiyGFHVcNPZ2lyA-30" value="URL redirect&amp;nbsp;" style="edgeLabel;html=1;align=center;verticalAlign=middle;resizable=0;points=[];" vertex="1" connectable="0" parent="V2SxDoiyGFHVcNPZ2lyA-29">
          <mxGeometry x="-0.1137" y="3" relative="1" as="geometry">
            <mxPoint as="offset" />
          </mxGeometry>
        </mxCell>
        <mxCell id="V2SxDoiyGFHVcNPZ2lyA-3" value="" style="sketch=0;outlineConnect=0;fontColor=#232F3E;gradientColor=none;fillColor=#4D27AA;strokeColor=none;dashed=0;verticalLabelPosition=bottom;verticalAlign=top;align=center;html=1;fontSize=12;fontStyle=0;aspect=fixed;pointerEvents=1;shape=mxgraph.aws4.cloudfront_functions;" vertex="1" parent="1">
          <mxGeometry x="386" y="30" width="78" height="78" as="geometry" />
        </mxCell>
        <mxCell id="V2SxDoiyGFHVcNPZ2lyA-4" value="resume.your-custom-domain.com&lt;br&gt;bucket" style="sketch=0;points=[[0,0,0],[0.25,0,0],[0.5,0,0],[0.75,0,0],[1,0,0],[0,1,0],[0.25,1,0],[0.5,1,0],[0.75,1,0],[1,1,0],[0,0.25,0],[0,0.5,0],[0,0.75,0],[1,0.25,0],[1,0.5,0],[1,0.75,0]];outlineConnect=0;fontColor=#232F3E;gradientColor=#60A337;gradientDirection=north;fillColor=#277116;strokeColor=#ffffff;dashed=0;verticalLabelPosition=bottom;verticalAlign=top;align=center;html=1;fontSize=12;fontStyle=0;aspect=fixed;shape=mxgraph.aws4.resourceIcon;resIcon=mxgraph.aws4.s3;" vertex="1" parent="1">
          <mxGeometry x="640" y="190" width="78" height="78" as="geometry" />
        </mxCell>
        <mxCell id="V2SxDoiyGFHVcNPZ2lyA-21" style="edgeStyle=orthogonalEdgeStyle;rounded=0;orthogonalLoop=1;jettySize=auto;html=1;strokeColor=#0d0d0d;" edge="1" parent="1" source="V2SxDoiyGFHVcNPZ2lyA-5" target="V2SxDoiyGFHVcNPZ2lyA-2">
          <mxGeometry relative="1" as="geometry" />
        </mxCell>
        <mxCell id="V2SxDoiyGFHVcNPZ2lyA-24" value="Resolves custom domain &lt;br&gt;to CloudFront" style="edgeLabel;html=1;align=center;verticalAlign=middle;resizable=0;points=[];" vertex="1" connectable="0" parent="V2SxDoiyGFHVcNPZ2lyA-21">
          <mxGeometry x="-0.0342" y="-1" relative="1" as="geometry">
            <mxPoint as="offset" />
          </mxGeometry>
        </mxCell>
        <mxCell id="V2SxDoiyGFHVcNPZ2lyA-5" value="&lt;font color=&quot;#0d0d0d&quot;&gt;your-custom-domain.com&lt;/font&gt;&lt;div&gt;&lt;font color=&quot;#0d0d0d&quot;&gt;Public hosted zone&amp;nbsp;&lt;/font&gt;&lt;/div&gt;" style="sketch=0;points=[[0,0,0],[0.25,0,0],[0.5,0,0],[0.75,0,0],[1,0,0],[0,1,0],[0.25,1,0],[0.5,1,0],[0.75,1,0],[1,1,0],[0,0.25,0],[0,0.5,0],[0,0.75,0],[1,0.25,0],[1,0.5,0],[1,0.75,0]];outlineConnect=0;fontColor=#232F3E;gradientColor=#945DF2;gradientDirection=north;fillColor=#5A30B5;strokeColor=#ffffff;dashed=0;verticalLabelPosition=bottom;verticalAlign=top;align=center;html=1;fontSize=12;fontStyle=0;aspect=fixed;shape=mxgraph.aws4.resourceIcon;resIcon=mxgraph.aws4.route_53;" vertex="1" parent="1">
          <mxGeometry x="140" y="190" width="78" height="78" as="geometry" />
        </mxCell>
        <mxCell id="V2SxDoiyGFHVcNPZ2lyA-13" value="&lt;font color=&quot;#000000&quot;&gt;google document&lt;/font&gt;" style="verticalLabelPosition=bottom;html=1;verticalAlign=top;align=center;strokeColor=none;fillColor=#00BEF2;shape=mxgraph.azure.file;pointerEvents=1;" vertex="1" parent="1">
          <mxGeometry x="655.25" y="44" width="47.5" height="50" as="geometry" />
        </mxCell>
        <mxCell id="V2SxDoiyGFHVcNPZ2lyA-17" value="&lt;font color=&quot;#0a0a0a&quot;&gt;user&lt;/font&gt;" style="text;html=1;align=center;verticalAlign=middle;resizable=0;points=[];autosize=1;strokeColor=none;fillColor=none;" vertex="1" parent="1">
          <mxGeometry x="15" y="258" width="50" height="30" as="geometry" />
        </mxCell>
      </root>
    </mxGraphModel>
  </diagram>
</mxfile>
